<mxfile host="65bd71144e">
    <diagram id="TVOQcAceSLreWFWGroSf" name="Page-1">
        <mxGraphModel dx="4127" dy="1649" grid="1" gridSize="10" guides="1" tooltips="1" connect="1" arrows="1" fold="1" page="1" pageScale="1" pageWidth="850" pageHeight="1100" background="#FFFFFF" math="0" shadow="1">
            <root>
                <mxCell id="0"/>
                <mxCell id="1" parent="0"/>
                <mxCell id="33" style="edgeStyle=none;html=1;entryX=0.25;entryY=0;entryDx=0;entryDy=0;sketch=1;curveFitting=1;jiggle=2;" parent="1" source="2" target="7" edge="1">
                    <mxGeometry relative="1" as="geometry"/>
                </mxCell>
                <mxCell id="49" value="&lt;b&gt;&lt;font face=&quot;Verdana&quot; style=&quot;font-size: 14px;&quot;&gt;onlyAdmin&lt;/font&gt;&lt;/b&gt;" style="edgeLabel;html=1;align=center;verticalAlign=middle;resizable=0;points=[];sketch=1;curveFitting=1;jiggle=2;" parent="33" vertex="1" connectable="0">
                    <mxGeometry x="-0.1355" y="2" relative="1" as="geometry">
                        <mxPoint as="offset"/>
                    </mxGeometry>
                </mxCell>
                <mxCell id="34" style="edgeStyle=none;html=1;entryX=0;entryY=0.5;entryDx=0;entryDy=0;sketch=1;curveFitting=1;jiggle=2;" parent="1" source="2" target="6" edge="1">
                    <mxGeometry relative="1" as="geometry">
                        <Array as="points">
                            <mxPoint x="-490" y="700"/>
                        </Array>
                    </mxGeometry>
                </mxCell>
                <mxCell id="112" value="&lt;b&gt;onlyAdmin&lt;/b&gt;" style="edgeLabel;html=1;align=center;verticalAlign=middle;resizable=0;points=[];fontSize=14;fontFamily=Verdana;" parent="34" vertex="1" connectable="0">
                    <mxGeometry x="-0.2856" y="2" relative="1" as="geometry">
                        <mxPoint x="89" y="52" as="offset"/>
                    </mxGeometry>
                </mxCell>
                <mxCell id="38" style="edgeStyle=none;html=1;entryX=0;entryY=0.5;entryDx=0;entryDy=0;sketch=1;curveFitting=1;jiggle=2;exitX=0.75;exitY=0;exitDx=0;exitDy=0;" parent="1" source="2" target="4" edge="1">
                    <mxGeometry relative="1" as="geometry"/>
                </mxCell>
                <mxCell id="47" value="&lt;meta charset=&quot;utf-8&quot;&gt;&lt;b style=&quot;border-color: var(--border-color); color: rgb(0, 0, 0); font-family: Verdana; font-size: 14px; font-style: normal; font-variant-ligatures: normal; font-variant-caps: normal; letter-spacing: normal; orphans: 2; text-align: center; text-indent: 0px; text-transform: none; widows: 2; word-spacing: 0px; -webkit-text-stroke-width: 0px; text-decoration-thickness: initial; text-decoration-style: initial; text-decoration-color: initial;&quot;&gt;onlyAdmin&lt;/b&gt;" style="edgeLabel;html=1;align=center;verticalAlign=middle;resizable=0;points=[];sketch=1;curveFitting=1;jiggle=2;" parent="38" vertex="1" connectable="0">
                    <mxGeometry x="-0.0549" relative="1" as="geometry">
                        <mxPoint x="1" as="offset"/>
                    </mxGeometry>
                </mxCell>
                <mxCell id="2" value="&lt;b&gt;Admin Contract&lt;/b&gt;" style="aspect=fixed;perimeter=ellipsePerimeter;html=1;align=center;shadow=0;dashed=0;fontColor=#4277BB;labelBackgroundColor=#ffffff;fontSize=12;spacingTop=3;image;image=img/lib/ibm/blockchain/smart_contract.svg;sketch=1;curveFitting=1;jiggle=2;" parent="1" vertex="1">
                    <mxGeometry x="-730" y="550" width="110" height="110" as="geometry"/>
                </mxCell>
                <mxCell id="46" value="Passes&lt;br&gt;&amp;nbsp;the&lt;br&gt;UserStake&amp;nbsp;" style="edgeStyle=none;html=1;entryX=0.5;entryY=0;entryDx=0;entryDy=0;sketch=1;curveFitting=1;jiggle=2;" parent="1" source="3" target="5" edge="1">
                    <mxGeometry x="-0.0021" relative="1" as="geometry">
                        <mxPoint as="offset"/>
                    </mxGeometry>
                </mxCell>
                <mxCell id="55" style="edgeStyle=none;html=1;entryX=1;entryY=0.5;entryDx=0;entryDy=0;sketch=1;curveFitting=1;jiggle=2;exitX=0;exitY=0.25;exitDx=0;exitDy=0;" parent="1" source="3" target="4" edge="1">
                    <mxGeometry relative="1" as="geometry">
                        <mxPoint x="210" y="420" as="sourcePoint"/>
                    </mxGeometry>
                </mxCell>
                <mxCell id="57" value="Transfers Fee Amount" style="edgeLabel;html=1;align=center;verticalAlign=middle;resizable=0;points=[];sketch=1;curveFitting=1;jiggle=2;" parent="55" vertex="1" connectable="0">
                    <mxGeometry x="0.0583" relative="1" as="geometry">
                        <mxPoint as="offset"/>
                    </mxGeometry>
                </mxCell>
                <mxCell id="125" style="edgeStyle=none;html=1;exitX=0.25;exitY=1;exitDx=0;exitDy=0;entryX=1;entryY=0.5;entryDx=0;entryDy=0;" edge="1" parent="1" source="3" target="7">
                    <mxGeometry relative="1" as="geometry">
                        <Array as="points">
                            <mxPoint x="-70" y="840"/>
                            <mxPoint x="-450" y="1035"/>
                        </Array>
                    </mxGeometry>
                </mxCell>
                <mxCell id="3" value="&lt;b&gt;Staking Platform&lt;/b&gt;" style="aspect=fixed;perimeter=ellipsePerimeter;html=1;align=center;shadow=0;dashed=0;fontColor=#4277BB;labelBackgroundColor=#ffffff;fontSize=12;spacingTop=3;image;image=img/lib/ibm/blockchain/smart_contract.svg;sketch=1;curveFitting=1;jiggle=2;" parent="1" vertex="1">
                    <mxGeometry x="230" y="460" width="130" height="130" as="geometry"/>
                </mxCell>
                <mxCell id="4" value="&lt;b&gt;Fee Treasury Contract&lt;/b&gt;" style="aspect=fixed;perimeter=ellipsePerimeter;html=1;align=center;shadow=0;dashed=0;fontColor=#4277BB;labelBackgroundColor=#ffffff;fontSize=12;spacingTop=3;image;image=img/lib/ibm/blockchain/smart_contract.svg;sketch=1;curveFitting=1;jiggle=2;" parent="1" vertex="1">
                    <mxGeometry x="-252.5" y="350" width="60" height="60" as="geometry"/>
                </mxCell>
                <mxCell id="5" value="&lt;b&gt;Rewards Distribution Contract&lt;/b&gt;" style="aspect=fixed;perimeter=ellipsePerimeter;html=1;align=center;shadow=0;dashed=0;fontColor=#4277BB;labelBackgroundColor=#ffffff;fontSize=12;spacingTop=3;image;image=img/lib/ibm/blockchain/smart_contract.svg;sketch=1;curveFitting=1;jiggle=2;" parent="1" vertex="1">
                    <mxGeometry x="240" y="970" width="110" height="110" as="geometry"/>
                </mxCell>
                <mxCell id="54" style="edgeStyle=none;html=1;entryX=0;entryY=0.75;entryDx=0;entryDy=0;sketch=1;curveFitting=1;jiggle=2;exitX=1;exitY=0.25;exitDx=0;exitDy=0;" parent="1" source="6" target="3" edge="1">
                    <mxGeometry relative="1" as="geometry">
                        <mxPoint x="-189" y="749" as="sourcePoint"/>
                        <Array as="points">
                            <mxPoint y="660"/>
                        </Array>
                    </mxGeometry>
                </mxCell>
                <mxCell id="56" value="Fee response" style="edgeLabel;html=1;align=center;verticalAlign=middle;resizable=0;points=[];sketch=1;curveFitting=1;jiggle=2;" parent="54" vertex="1" connectable="0">
                    <mxGeometry x="-0.0361" relative="1" as="geometry">
                        <mxPoint x="-1" y="-7" as="offset"/>
                    </mxGeometry>
                </mxCell>
                <mxCell id="6" value="&lt;b&gt;Fee Contract&lt;/b&gt;" style="aspect=fixed;perimeter=ellipsePerimeter;html=1;align=center;shadow=0;dashed=0;fontColor=#4277BB;labelBackgroundColor=#ffffff;fontSize=12;spacingTop=3;image;image=img/lib/ibm/blockchain/smart_contract.svg;imageBackground=none;sketch=1;curveFitting=1;jiggle=2;" parent="1" vertex="1">
                    <mxGeometry x="-267.5" y="710" width="90" height="90" as="geometry"/>
                </mxCell>
                <mxCell id="7" value="&lt;b&gt;Escrow Contract&lt;/b&gt;" style="aspect=fixed;perimeter=ellipsePerimeter;html=1;align=center;shadow=0;dashed=0;fontColor=#4277BB;labelBackgroundColor=#ffffff;fontSize=12;spacingTop=3;image;image=img/lib/ibm/blockchain/smart_contract.svg;sketch=1;curveFitting=1;jiggle=2;" parent="1" vertex="1">
                    <mxGeometry x="-710" y="960" width="150" height="150" as="geometry"/>
                </mxCell>
                <mxCell id="25" style="edgeStyle=none;html=1;sketch=1;curveFitting=1;jiggle=2;entryX=1.003;entryY=0.427;entryDx=0;entryDy=0;entryPerimeter=0;" parent="1" source="8" target="3" edge="1">
                    <mxGeometry relative="1" as="geometry">
                        <mxPoint x="240" y="400" as="targetPoint"/>
                    </mxGeometry>
                </mxCell>
                <mxCell id="8" value="&lt;b&gt;One-day&lt;br&gt;StakingPool Contract&lt;/b&gt;" style="aspect=fixed;perimeter=ellipsePerimeter;html=1;align=center;shadow=0;dashed=0;fontColor=#4277BB;labelBackgroundColor=#ffffff;fontSize=12;spacingTop=3;image;image=img/lib/ibm/blockchain/smart_contract.svg;imageBackground=none;fillStyle=solid;imageAspect=1;sketch=1;curveFitting=1;jiggle=2;" parent="1" vertex="1">
                    <mxGeometry x="790" y="240" width="60" height="60" as="geometry"/>
                </mxCell>
                <mxCell id="26" style="edgeStyle=none;html=1;entryX=1.012;entryY=0.581;entryDx=0;entryDy=0;sketch=1;curveFitting=1;jiggle=2;entryPerimeter=0;" parent="1" source="9" target="3" edge="1">
                    <mxGeometry relative="1" as="geometry">
                        <mxPoint x="208.31320343559636" y="438.78679656440386" as="targetPoint"/>
                    </mxGeometry>
                </mxCell>
                <mxCell id="9" value="&lt;b&gt;One-week&lt;br&gt;&lt;/b&gt;&lt;b style=&quot;border-color: var(--border-color);&quot;&gt;StakingPool&lt;/b&gt;&lt;b&gt;&amp;nbsp;Contract&lt;/b&gt;" style="aspect=fixed;perimeter=ellipsePerimeter;html=1;align=center;shadow=0;dashed=0;fontColor=#4277BB;labelBackgroundColor=#ffffff;fontSize=12;spacingTop=3;image;image=img/lib/ibm/blockchain/smart_contract.svg;sketch=1;curveFitting=1;jiggle=2;" parent="1" vertex="1">
                    <mxGeometry x="790" y="390" width="60" height="60" as="geometry"/>
                </mxCell>
                <mxCell id="28" style="edgeStyle=none;html=1;sketch=1;curveFitting=1;jiggle=2;entryX=1;entryY=1;entryDx=0;entryDy=0;" parent="1" source="10" target="3" edge="1">
                    <mxGeometry relative="1" as="geometry">
                        <mxPoint x="217.1" y="460" as="targetPoint"/>
                    </mxGeometry>
                </mxCell>
                <mxCell id="10" value="&lt;b&gt;Six-months&lt;br&gt;&lt;/b&gt;&lt;b style=&quot;border-color: var(--border-color);&quot;&gt;StakingPool&lt;/b&gt;&lt;b&gt;&amp;nbsp;Contract&lt;/b&gt;" style="aspect=fixed;perimeter=ellipsePerimeter;html=1;align=center;shadow=0;dashed=0;fontColor=#4277BB;labelBackgroundColor=#ffffff;fontSize=12;spacingTop=3;image;image=img/lib/ibm/blockchain/smart_contract.svg;sketch=1;curveFitting=1;jiggle=2;" parent="1" vertex="1">
                    <mxGeometry x="790" y="690" width="60" height="60" as="geometry"/>
                </mxCell>
                <mxCell id="29" style="edgeStyle=none;html=1;sketch=1;curveFitting=1;jiggle=2;entryX=0.75;entryY=1;entryDx=0;entryDy=0;" parent="1" source="11" target="3" edge="1">
                    <mxGeometry relative="1" as="geometry">
                        <mxPoint x="320" y="500" as="targetPoint"/>
                    </mxGeometry>
                </mxCell>
                <mxCell id="11" value="&lt;b&gt;One-year&amp;nbsp;&lt;br&gt;&lt;/b&gt;&lt;b style=&quot;border-color: var(--border-color);&quot;&gt;StakingPool&lt;/b&gt;&lt;b&gt;&amp;nbsp;Contract&lt;/b&gt;" style="aspect=fixed;perimeter=ellipsePerimeter;html=1;align=center;shadow=0;dashed=0;fontColor=#4277BB;labelBackgroundColor=#ffffff;fontSize=12;spacingTop=3;image;image=img/lib/ibm/blockchain/smart_contract.svg;sketch=1;curveFitting=1;jiggle=2;" parent="1" vertex="1">
                    <mxGeometry x="790" y="840" width="60" height="60" as="geometry"/>
                </mxCell>
                <mxCell id="27" style="edgeStyle=none;html=1;entryX=1;entryY=0.75;entryDx=0;entryDy=0;sketch=1;curveFitting=1;jiggle=2;" parent="1" source="12" target="3" edge="1">
                    <mxGeometry relative="1" as="geometry">
                        <mxPoint x="214.1858155647179" y="447.1019925882299" as="targetPoint"/>
                    </mxGeometry>
                </mxCell>
                <mxCell id="12" value="&lt;b&gt;One-month&lt;br&gt;&lt;/b&gt;&lt;b style=&quot;border-color: var(--border-color);&quot;&gt;StakingPool&lt;/b&gt;&lt;b&gt;&amp;nbsp;Contract&lt;/b&gt;" style="aspect=fixed;perimeter=ellipsePerimeter;html=1;align=center;shadow=0;dashed=0;fontColor=#4277BB;labelBackgroundColor=#ffffff;fontSize=12;spacingTop=3;image;image=img/lib/ibm/blockchain/smart_contract.svg;sketch=1;curveFitting=1;jiggle=2;" parent="1" vertex="1">
                    <mxGeometry x="790" y="540" width="60" height="60" as="geometry"/>
                </mxCell>
                <mxCell id="72" style="edgeStyle=none;sketch=1;hachureGap=4;jiggle=2;curveFitting=1;html=1;exitX=0;exitY=0;exitDx=0;exitDy=0;entryX=1;entryY=0.5;entryDx=0;entryDy=0;fontFamily=Verdana;fontSize=14;" parent="1" source="65" target="8" edge="1">
                    <mxGeometry relative="1" as="geometry"/>
                </mxCell>
                <mxCell id="73" style="edgeStyle=none;sketch=1;hachureGap=4;jiggle=2;curveFitting=1;html=1;entryX=1;entryY=0.25;entryDx=0;entryDy=0;fontFamily=Verdana;fontSize=14;exitX=0;exitY=0.25;exitDx=0;exitDy=0;" parent="1" source="65" target="9" edge="1">
                    <mxGeometry relative="1" as="geometry">
                        <mxPoint x="1040" y="420" as="sourcePoint"/>
                    </mxGeometry>
                </mxCell>
                <mxCell id="74" style="edgeStyle=none;sketch=1;hachureGap=4;jiggle=2;curveFitting=1;html=1;entryX=1;entryY=0.25;entryDx=0;entryDy=0;fontFamily=Verdana;fontSize=14;exitX=0;exitY=0.5;exitDx=0;exitDy=0;" parent="1" source="65" target="12" edge="1">
                    <mxGeometry relative="1" as="geometry">
                        <mxPoint x="1040" y="500" as="sourcePoint"/>
                    </mxGeometry>
                </mxCell>
                <mxCell id="75" style="edgeStyle=none;sketch=1;hachureGap=4;jiggle=2;curveFitting=1;html=1;exitX=0;exitY=1;exitDx=0;exitDy=0;fontFamily=Verdana;fontSize=14;entryX=1;entryY=0.5;entryDx=0;entryDy=0;" parent="1" source="65" target="10" edge="1">
                    <mxGeometry relative="1" as="geometry">
                        <mxPoint x="800" y="700" as="targetPoint"/>
                    </mxGeometry>
                </mxCell>
                <mxCell id="76" style="edgeStyle=none;sketch=1;hachureGap=4;jiggle=2;curveFitting=1;html=1;exitX=0.5;exitY=1;exitDx=0;exitDy=0;entryX=1;entryY=0.25;entryDx=0;entryDy=0;fontFamily=Verdana;fontSize=14;" parent="1" source="65" target="11" edge="1">
                    <mxGeometry relative="1" as="geometry"/>
                </mxCell>
                <mxCell id="65" value="&lt;h1&gt;&lt;span style=&quot;background-color: initial;&quot;&gt;&amp;nbsp; &amp;nbsp;&amp;nbsp;&lt;/span&gt;Staking Contracts&lt;/h1&gt;&lt;div&gt;&lt;blockquote style=&quot;margin: 0 0 0 40px; border: none; padding: 0px;&quot;&gt;&lt;div&gt;&lt;br&gt;&lt;/div&gt;&lt;div&gt;&lt;div style=&quot;border-color: var(--border-color);&quot;&gt;User interacts with these StakingPool Contracts.&amp;nbsp;&lt;/div&gt;&lt;/div&gt;&lt;div&gt;&lt;div style=&quot;border-color: var(--border-color);&quot;&gt;&amp;nbsp;Funktions:&lt;/div&gt;&lt;/div&gt;&lt;div&gt;&lt;div style=&quot;border-color: var(--border-color);&quot;&gt;&amp;nbsp; &amp;nbsp; &amp;nbsp; &amp;nbsp; &amp;nbsp;- Stake&lt;/div&gt;&lt;/div&gt;&lt;div&gt;&lt;div style=&quot;border-color: var(--border-color);&quot;&gt;&amp;nbsp; &amp;nbsp; &amp;nbsp; &amp;nbsp; &amp;nbsp;- Claim&lt;/div&gt;&lt;/div&gt;&lt;/blockquote&gt;&lt;/div&gt;" style="text;html=1;spacing=5;spacingTop=-20;whiteSpace=wrap;overflow=hidden;rounded=1;fillColor=#dae8fc;strokeColor=#6c8ebf;shadow=1;glass=0;" parent="1" vertex="1">
                    <mxGeometry x="1050" y="400" width="520" height="170" as="geometry"/>
                </mxCell>
                <mxCell id="71" style="edgeStyle=none;sketch=1;hachureGap=4;jiggle=2;curveFitting=1;html=1;entryX=0.5;entryY=0;entryDx=0;entryDy=0;fontFamily=Verdana;fontSize=14;" parent="1" source="70" target="3" edge="1">
                    <mxGeometry relative="1" as="geometry"/>
                </mxCell>
                <mxCell id="70" value="&lt;h1&gt;&lt;span style=&quot;background-color: initial;&quot;&gt;&lt;font face=&quot;Verdana&quot;&gt;&amp;nbsp; &amp;nbsp;&amp;nbsp;&lt;/font&gt;&lt;/span&gt;&lt;/h1&gt;&lt;h1&gt;&amp;nbsp;Staking Platform&lt;/h1&gt;&lt;h1 style=&quot;font-size: 14px;&quot;&gt;&lt;font face=&quot;Verdana&quot;&gt;&amp;nbsp;This is the main smartcontract for the platform.&lt;br&gt;&lt;/font&gt;&lt;ul&gt;&lt;li style=&quot;border-color: var(--border-color);&quot;&gt;&lt;span style=&quot;font-weight: normal;&quot;&gt;Interacts with the staking pools.&lt;/span&gt;&lt;/li&gt;&lt;li style=&quot;border-color: var(--border-color);&quot;&gt;&lt;span style=&quot;font-weight: 400;&quot;&gt;Interacts with the Rewards Distribution contract.&lt;/span&gt;&lt;/li&gt;&lt;li style=&quot;border-color: var(--border-color);&quot;&gt;&lt;span style=&quot;font-weight: 400;&quot;&gt;Passes the UserStake and pool information.&lt;/span&gt;&lt;/li&gt;&lt;li style=&quot;border-color: var(--border-color);&quot;&gt;&lt;span style=&quot;font-weight: 400;&quot;&gt;Query the fee amount from the fee contract.&lt;/span&gt;&lt;/li&gt;&lt;li style=&quot;border-color: var(--border-color);&quot;&gt;&lt;span style=&quot;font-weight: 400;&quot;&gt;Transfers fee amount to treasury at staking.&lt;/span&gt;&lt;/li&gt;&lt;li style=&quot;border-color: var(--border-color);&quot;&gt;&lt;span style=&quot;font-weight: 400;&quot;&gt;Transfers fee amount to treasury at claiming.&lt;/span&gt;&lt;/li&gt;&lt;/ul&gt;&lt;/h1&gt;" style="text;html=1;spacing=5;spacingTop=-20;whiteSpace=wrap;overflow=hidden;rounded=1;shadow=1;glass=0;fillColor=#e1d5e7;strokeColor=#9673a6;" parent="1" vertex="1">
                    <mxGeometry x="95" y="85" width="400" height="300" as="geometry"/>
                </mxCell>
                <mxCell id="96" style="edgeStyle=none;sketch=1;hachureGap=4;jiggle=2;curveFitting=1;html=1;exitX=0;exitY=0;exitDx=0;exitDy=0;entryX=0;entryY=0.75;entryDx=0;entryDy=0;fontFamily=Verdana;fontSize=13;" parent="1" source="79" target="7" edge="1">
                    <mxGeometry relative="1" as="geometry"/>
                </mxCell>
                <mxCell id="79" value="&lt;h1&gt;&lt;font face=&quot;Verdana&quot;&gt;&lt;span style=&quot;background-color: initial;&quot;&gt;&lt;font style=&quot;font-size: 19px;&quot;&gt;&lt;span style=&quot;font-weight: normal;&quot;&gt;&amp;nbsp;&lt;/span&gt; &amp;nbsp;Escrow Contract&lt;/font&gt;&lt;/span&gt;&lt;br&gt;&lt;/font&gt;&lt;/h1&gt;&lt;blockquote style=&quot;margin: 0 0 0 40px; border: none; padding: 0px;&quot;&gt;&lt;h1 style=&quot;font-size: 13px;&quot;&gt;&lt;div style=&quot;&quot;&gt;&lt;span style=&quot;background-color: initial; font-weight: normal;&quot;&gt;&lt;font style=&quot;font-size: 13px;&quot; face=&quot;Verdana&quot;&gt;The escrow holds all the funds, both the reward amount and users staked amount&lt;/font&gt;&lt;/span&gt;&lt;/div&gt;&lt;/h1&gt;&lt;/blockquote&gt;&lt;h1 style=&quot;font-size: 13px;&quot;&gt;&lt;ul&gt;&lt;ul&gt;&lt;li style=&quot;border-color: var(--border-color);&quot;&gt;&lt;span style=&quot;font-weight: normal;&quot;&gt;&lt;font style=&quot;font-size: 13px;&quot; face=&quot;Verdana&quot;&gt;Internal WithdrawStake function&lt;/font&gt;&lt;/span&gt;&lt;/li&gt;&lt;li style=&quot;border-color: var(--border-color);&quot;&gt;&lt;span style=&quot;font-weight: normal;&quot;&gt;&lt;font style=&quot;font-size: 13px;&quot; face=&quot;Verdana&quot;&gt;Internal DepositStake function&lt;/font&gt;&lt;/span&gt;&lt;/li&gt;&lt;li style=&quot;border-color: var(--border-color);&quot;&gt;&lt;span style=&quot;font-weight: normal;&quot;&gt;&lt;font style=&quot;font-size: 13px;&quot; face=&quot;Verdana&quot;&gt;Stores the DayStake/UserStake structs&lt;/font&gt;&lt;/span&gt;&lt;/li&gt;&lt;li style=&quot;border-color: var(--border-color);&quot;&gt;&lt;span style=&quot;font-weight: normal;&quot;&gt;&lt;font style=&quot;font-size: 13px;&quot; face=&quot;Verdana&quot;&gt;Admin Deposits Reward amounts&lt;/font&gt;&lt;/span&gt;&lt;/li&gt;&lt;li style=&quot;border-color: var(--border-color);&quot;&gt;&lt;span style=&quot;font-weight: 400;&quot;&gt;&lt;font style=&quot;font-size: 13px;&quot; face=&quot;Verdana&quot;&gt;Controls the reward balance and Stake balance.&amp;nbsp;&lt;/font&gt;&lt;/span&gt;&lt;/li&gt;&lt;/ul&gt;&lt;/ul&gt;&lt;/h1&gt;" style="text;html=1;spacing=5;spacingTop=-20;whiteSpace=wrap;overflow=hidden;rounded=1;shadow=1;glass=0;fillColor=#e1d5e7;strokeColor=#9673a6;direction=south;" parent="1" vertex="1">
                    <mxGeometry x="-1040" y="1120" width="290" height="380" as="geometry"/>
                </mxCell>
                <mxCell id="102" style="edgeStyle=none;sketch=1;hachureGap=4;jiggle=2;curveFitting=1;html=1;exitX=0.75;exitY=1;exitDx=0;exitDy=0;entryX=0;entryY=0;entryDx=0;entryDy=0;fontFamily=Verdana;fontSize=14;" parent="1" source="97" target="2" edge="1">
                    <mxGeometry relative="1" as="geometry"/>
                </mxCell>
                <mxCell id="97" value="&lt;h1&gt;&lt;font face=&quot;Verdana&quot;&gt;&lt;span style=&quot;background-color: initial;&quot;&gt;&lt;font style=&quot;font-size: 19px;&quot;&gt;&lt;span style=&quot;font-weight: normal;&quot;&gt;&amp;nbsp;&lt;/span&gt; &amp;nbsp;Admin Contract&lt;/font&gt;&lt;/span&gt;&lt;/font&gt;&lt;/h1&gt;&lt;blockquote style=&quot;margin: 0 0 0 40px; border: none; padding: 0px;&quot;&gt;&lt;h1&gt;&lt;span style=&quot;font-weight: normal;&quot;&gt;&lt;font style=&quot;font-size: 14px;&quot;&gt;The Admin contract contains the onlyAdmin and onlyOperator modifiers and admin assignments and revoking functions.&lt;/font&gt;&lt;/span&gt;&lt;/h1&gt;&lt;/blockquote&gt;" style="text;html=1;spacing=5;spacingTop=-20;whiteSpace=wrap;overflow=hidden;rounded=1;shadow=1;glass=0;fillColor=#ffe6cc;strokeColor=#d79b00;" parent="1" vertex="1">
                    <mxGeometry x="-1070" y="335" width="350" height="170" as="geometry"/>
                </mxCell>
                <mxCell id="103" style="edgeStyle=none;sketch=1;hachureGap=4;jiggle=2;curveFitting=1;html=1;exitX=0.5;exitY=1;exitDx=0;exitDy=0;entryX=0.5;entryY=0;entryDx=0;entryDy=0;fontFamily=Verdana;fontSize=14;" parent="1" source="101" target="4" edge="1">
                    <mxGeometry relative="1" as="geometry"/>
                </mxCell>
                <mxCell id="101" value="&lt;h1&gt;&lt;font face=&quot;Verdana&quot;&gt;&lt;span style=&quot;background-color: initial;&quot;&gt;&lt;font style=&quot;font-size: 19px;&quot;&gt;&lt;span style=&quot;font-weight: normal;&quot;&gt;&amp;nbsp;&lt;/span&gt;&amp;nbsp; Fee Treasury Contract&lt;/font&gt;&lt;/span&gt;&lt;/font&gt;&lt;/h1&gt;&lt;blockquote style=&quot;margin: 0 0 0 40px; border: none; padding: 0px;&quot;&gt;&lt;h1&gt;&lt;span style=&quot;font-weight: normal;&quot;&gt;&lt;font style=&quot;font-size: 14px;&quot;&gt;Stores the funds received from fees&lt;/font&gt;&lt;/span&gt;&lt;/h1&gt;&lt;/blockquote&gt;" style="text;html=1;spacing=5;spacingTop=-20;whiteSpace=wrap;overflow=hidden;rounded=1;shadow=1;glass=0;fillColor=#f5f5f5;strokeColor=#666666;fontColor=#333333;" parent="1" vertex="1">
                    <mxGeometry x="-370" y="140" width="295" height="100" as="geometry"/>
                </mxCell>
                <mxCell id="122" style="edgeStyle=none;sketch=1;hachureGap=4;jiggle=2;curveFitting=1;html=1;exitX=0.75;exitY=1;exitDx=0;exitDy=0;entryX=0.75;entryY=0;entryDx=0;entryDy=0;fontFamily=Verdana;fontSize=14;" parent="1" source="107" target="6" edge="1">
                    <mxGeometry relative="1" as="geometry"/>
                </mxCell>
                <mxCell id="107" value="&lt;h1&gt;&lt;font face=&quot;Verdana&quot;&gt;&lt;span style=&quot;background-color: initial;&quot;&gt;&lt;font style=&quot;font-size: 19px;&quot;&gt;&lt;span style=&quot;font-weight: normal;&quot;&gt;&amp;nbsp;&lt;/span&gt;&amp;nbsp; Fee Contract&lt;/font&gt;&lt;/span&gt;&lt;/font&gt;&lt;/h1&gt;&lt;blockquote style=&quot;margin: 0 0 0 40px; border: none; padding: 0px;&quot;&gt;&lt;h1&gt;&lt;span style=&quot;font-weight: normal;&quot;&gt;&lt;font style=&quot;font-size: 14px;&quot;&gt;calculates the fee amounts&lt;/font&gt;&lt;/span&gt;&lt;/h1&gt;&lt;/blockquote&gt;" style="text;html=1;spacing=5;spacingTop=-20;whiteSpace=wrap;overflow=hidden;rounded=1;shadow=1;glass=0;fillColor=#f5f5f5;strokeColor=#666666;fontColor=#333333;" parent="1" vertex="1">
                    <mxGeometry x="-425" y="520" width="295" height="120" as="geometry"/>
                </mxCell>
                <mxCell id="117" style="edgeStyle=none;sketch=1;hachureGap=4;jiggle=2;curveFitting=1;html=1;exitX=0;exitY=0.5;exitDx=0;exitDy=0;entryX=0.5;entryY=1;entryDx=0;entryDy=0;fontFamily=Verdana;fontSize=14;" parent="1" source="116" target="5" edge="1">
                    <mxGeometry relative="1" as="geometry"/>
                </mxCell>
                <mxCell id="116" value="&lt;h1&gt;&lt;font face=&quot;Verdana&quot;&gt;&lt;span style=&quot;background-color: initial;&quot;&gt;&lt;font style=&quot;font-size: 19px;&quot;&gt;&lt;span style=&quot;font-weight: normal;&quot;&gt;&amp;nbsp;&lt;/span&gt; &amp;nbsp;Reward Distribution Contract&lt;/font&gt;&lt;/span&gt;&lt;br&gt;&lt;/font&gt;&lt;/h1&gt;&lt;blockquote style=&quot;margin: 0 0 0 40px; border: none; padding: 0px;&quot;&gt;&lt;h1 style=&quot;font-size: 13px;&quot;&gt;&lt;div style=&quot;&quot;&gt;&lt;ul&gt;&lt;li&gt;&lt;font face=&quot;Verdana&quot;&gt;&lt;span style=&quot;font-weight: 400;&quot;&gt;Responsible for calculating the reward amount for the stakingpools and userStakes.&amp;nbsp;&lt;/span&gt;&lt;/font&gt;&lt;/li&gt;&lt;li&gt;&lt;span style=&quot;font-weight: normal;&quot;&gt;Manages the DaysStake and passes the UserStake and DayStake structs to the Escrow.&lt;/span&gt;&lt;/li&gt;&lt;/ul&gt;&lt;/div&gt;&lt;div style=&quot;&quot;&gt;&lt;ul&gt;&lt;li&gt;&lt;font face=&quot;Verdana&quot;&gt;&lt;span style=&quot;font-weight: 400;&quot;&gt;Query the fee amount at staking and claiming&lt;/span&gt;&lt;/font&gt;&lt;/li&gt;&lt;/ul&gt;&lt;/div&gt;&lt;/h1&gt;&lt;/blockquote&gt;" style="text;html=1;spacing=5;spacingTop=-20;whiteSpace=wrap;overflow=hidden;rounded=1;shadow=1;glass=0;fillColor=#f8cecc;strokeColor=#b85450;direction=south;" parent="1" vertex="1">
                    <mxGeometry x="170" y="1250" width="415" height="180" as="geometry"/>
                </mxCell>
            </root>
        </mxGraphModel>
    </diagram>
</mxfile>